<?xml version="1.0" encoding="UTF-8"?>
<svg id="Layer_1" xmlns="http://www.w3.org/2000/svg" version="1.1" viewBox="0 0 317.5 317.5">
  <!-- Generator: Adobe Illustrator 29.8.2, SVG Export Plug-In . SVG Version: 2.1.1 Build 3)  -->
  <path d="M160,6.6C75.4,6.6,6.6,75.4,6.6,160s68.8,153.4,153.4,153.4,153.4-68.8,153.4-153.4S244.6,6.6,160,6.6ZM188.7,80.7c.7.4,1.4.8,2.1,1.2,1.6,1,3.3,2,5.1,2.9,14.6,7.4,26.3,18.1,34.8,31.7,8.1,13,11.4,26.9,10.9,45.2-.4,15.5-3.3,27.6-8.8,37.1-8.4,14.5-20.5,26.1-36.1,34.7l-.8.4c-2.9,1.6-5.8,3.2-8.7,5-2.7,1.8-4.2,4.3-4.5,7.4-.2,1.7-.3,3.5-.1,5.4l-22.4,17.8-23.4-18.5c.1-1.5.1-3.1,0-4.9-.3-3.9-2.1-6.8-5.4-8.7-.7-.4-1.4-.8-2.1-1.3-1-.6-2-1.2-3.1-1.8-5.2-2.7-11.1-5.9-16.3-10-25.3-20.2-36.1-46.3-32.2-77.6,3.1-24.5,16.5-44.5,39.8-59.5,2.6-1.7,5.4-3.1,8.3-4.6,1.6-.8,3.2-1.6,4.8-2.5,4.3-2.4,6.5-6,6.5-10.5l23.2-19,22.3,17.7c-.4,5.3.8,9.2,6.1,12.3ZM18.2,160c0-76.2,60.5-138.6,136-141.7v22.3L53.7,122.7v77.2l14.3,11.3,86.2,68.2v22.2c-75.5-3.1-136-65.4-136-141.7ZM165.8,301.7v-21.9l100.8-79.7v-80l-100.8-79.7v-21.9c75.5,3.1,136,65.4,136,141.7s-60.5,138.6-136,141.7Z" fill="#f5c09a"/>
  <path d="M170.3,89.5l-10.2-7.7-10.2,7.7v15.6c-3.9.6-7.5,1.7-10.8,3.3-5.7,2.7-10.2,6.4-13.3,11-3.1,4.7-4.7,9.9-4.7,15.6s2.7,14,8,19.1c5.2,4.9,11.5,8.6,18.8,11l6.8,2.3c7.8,2.7,13.3,5.3,16.3,7.6,2.8,2.2,4.1,4.9,4.1,8.3s-1.4,5.9-4.3,7.8c-3,2-6.7,3-11,3s-9.4-1.5-12.8-4.5c-3.5-3.1-6-7.3-7.4-12.5l-.5-1.6-22.6,8.4.4,1.3c3.1,9.6,8.5,17.2,16.2,22.5,5,3.5,10.7,5.8,16.8,7v16.3l10.2,7.7,10.2-7.7v-16.5c2.8-.6,5.5-1.4,8.1-2.5,6.1-2.4,11.1-6.1,14.9-11,3.9-4.9,5.9-11,5.9-18s-2.7-15.6-8.1-20.9c-5.2-5.2-12.9-9.5-22.7-12.6l-6.9-2.2c-6.2-2-10.6-4-13.2-6-2.4-1.9-3.6-4.1-3.6-6.7s1.2-4.8,3.7-6.5c2.6-1.8,6.1-2.7,10.3-2.7s7.3,1,9.9,2.9c2.6,2,4.4,4.5,5.4,7.3l.5,1.5,21.3-8.4-.5-1.3c-2.2-6.1-6.4-11.5-12.4-16.1-3.5-2.7-7.8-4.5-12.8-5.7v-16.1Z" fill="#f5c09a"/>
</svg>